# xmcd
#
# Track frame offsets:
#	150
#	42592
#	77405
#	112213
#	154830
#	199492
#	228863
#	267305
#	307218
#
# Disc length: 4667 seconds
#
# Revision: 1
# Processed by: cddbd v1.5.2PL0 Copyright (c) Steve Scherf et al.
# Submitted via: audiograbber 1.83.01
#
DISCID=7e123909
DTITLE=DJ Spinna - The Sound Beyond the Stars [CD 2)
DYEAR=2014
DGENRE=Galactic Soul
TTITLE0=Loftsoul feat. Lisa Millet - "Dear Friend" (DJ Spinna Remix)
TTITLE1=Kerri Chandler With Harley and Muscle - "You can't Lie" (DJ Spinna Remix)
TTITLE2=Groove Addix feat. Anette Taylor - "Faith" (DJ Spinna Galatic Soul Remi
TTITLE2=x)
TTITLE3=Tone Control - "Without Your Love" (DJ Spinna Galactic Soul Vocal Mix)
TTITLE4=Animal House - "Dirty Mind" (Edit) (DJ Spinna Remix)
TTITLE5=Yvette Rovira - " I Remember Love" (DJ Spinna Galactic Soul Vocal Mix)
TTITLE6=KemeticJust feat. Terrance Downs - "I Got Life" (DJ Spinna Galactic Sou
TTITLE6=l Vocal Mix)
TTITLE7=Bah Samba - "Moonlight" (DJ Spinna Galactic Soul Vocal)
TTITLE8=Ralf GUM and Monique Bingham - "Little W. 12th Street" (DJ Spinna Galacti
TTITLE8=c Soul Remix)
EXTD=DJ Spinna Presents\nThe\nSound\nBeyond\nStars\nThe Essential Remixes
EXTT0=
EXTT1=
EXTT2=
EXTT3=
EXTT4=
EXTT5=
EXTT6=
EXTT7=
EXTT8=
PLAYORDER=
